<svg xmlns="http://www.w3.org/2000/svg" version="1.1" xmlns:xlink="http://www.w3.org/1999/xlink" xmlns:svgjs="http://svgjs.dev/svgjs" width="2000" height="1500" viewBox="0 0 2000 1500"><rect width="2000" height="1500" fill="#102e44"></rect><g transform="matrix(0.75,0,0,0.75,249.090909090909,611.9196439747594)"><svg viewBox="0 0 396 73" data-background-color="#102e44" preserveAspectRatio="xMidYMid meet" height="368" width="2000" xmlns="http://www.w3.org/2000/svg" xmlns:xlink="http://www.w3.org/1999/xlink"><g id="tight-bounds" transform="matrix(1,0,0,1,0.24000000000003752,0.02125358638608077)"><svg viewBox="0 0 395.5199999999999 72.95749282722787" height="72.95749282722787" width="395.5199999999999"><g><svg viewBox="0 0 482.5224484954498 89.00593667850731" height="72.95749282722787" width="395.5199999999999"><g transform="matrix(1,0,0,1,0,12.30110991721773)"><svg viewBox="0 0 395.52 64.40371684407185" height="64.40371684407185" width="395.52"><g id="textblocktransform"><svg viewBox="0 0 395.52 64.40371684407185" height="64.40371684407185" width="395.52" id="textblock"><g><svg viewBox="0 0 395.52 34.7362874251497" height="34.7362874251497" width="395.52"><g transform="matrix(1,0,0,1,0,0)"><svg width="395.52" viewBox="2 -37.95000076293945 450.8699951171875 39.60000228881836" height="34.7362874251497" data-palette-color="#ffffff"><path d="M2-36.25L25.55-36.25 25.55-31.05 16.4-31.05 16.4 0 10.95 0 10.95-31.05 2-31.05 2-36.25ZM37.5 0L32 0 32-36.25 41.9-36.25Q44.75-36.25 47.12-35.5 49.5-34.75 51.22-33.27 52.95-31.8 53.9-29.68 54.85-27.55 54.85-24.8L54.85-24.8Q54.85-23.3 54.55-21.83 54.25-20.35 53.57-18.98 52.9-17.6 51.85-16.43 50.8-15.25 49.3-14.45L49.3-14.45Q51.3-11.3 53.65-7.48 56-3.65 58.4 0L58.4 0 51.85 0Q50.85-1.55 49.77-3.25 48.7-4.95 47.62-6.63 46.55-8.3 45.52-9.93 44.5-11.55 43.6-12.95L43.6-12.95 42.6-12.95 37.5-12.95 37.5 0ZM37.5-31.15L37.5-18.1 42.45-18.1Q44.45-18.1 45.8-18.78 47.15-19.45 47.92-20.45 48.7-21.45 49.02-22.6 49.35-23.75 49.35-24.7L49.35-24.7Q49.35-25.65 49.02-26.78 48.7-27.9 47.9-28.88 47.1-29.85 45.77-30.5 44.45-31.15 42.5-31.15L42.5-31.15 37.5-31.15ZM91.25 0L85.85 0Q85.6-0.55 85.15-1.6 84.7-2.65 84.12-4.03 83.55-5.4 82.87-7.03 82.2-8.65 81.5-10.4L81.5-10.4 68.7-10.4 64.4 0 59 0 75.15-37.95Q75.45-37.25 76.22-35.4 77-33.55 78.07-30.98 79.15-28.4 80.47-25.28 81.8-22.15 83.17-18.95 84.55-15.75 85.87-12.65 87.2-9.55 88.3-6.95 89.4-4.35 90.17-2.53 90.95-0.7 91.25 0L91.25 0ZM74.6-24.7L70.6-15 79.65-15Q78.95-16.65 78.32-18.18 77.7-19.7 77.17-20.98 76.65-22.25 76.25-23.2 75.85-24.15 75.65-24.7L75.65-24.7Q75.6-24.8 75.42-25.4 75.25-26 75.15-26.5L75.15-26.5Q75.05-26 74.85-25.4 74.65-24.8 74.6-24.7L74.6-24.7ZM122.09-36.25L127.54-36.25 127.54 1.65Q126.84 0.75 124.84-1.25 122.84-3.25 120.24-5.85 117.64-8.45 114.72-11.3 111.79-14.15 109.19-16.73 106.59-19.3 104.64-21.33 102.69-23.35 102.04-24.2L102.04-24.2 101.09-25.5 101.24-23.9 101.24 0 95.74 0 95.74-37.95Q96.29-37.25 97.57-35.95 98.84-34.65 100.57-32.93 102.29-31.2 104.37-29.2 106.44-27.2 108.57-25.15 110.69-23.1 112.77-21.13 114.84-19.15 116.57-17.45 118.29-15.75 119.54-14.45 120.79-13.15 121.29-12.5L121.29-12.5 122.24-11.1 122.09-12.8 122.09-36.25ZM157.19-34.25L157.19-34.25 155.24-29.8Q153.19-30.55 151.17-31 149.14-31.45 147.29-31.45L147.29-31.45Q144.14-31.45 142.27-30.15 140.39-28.85 140.39-26.85L140.39-26.85Q140.39-25.15 141.74-24.13 143.09-23.1 145.09-22.28 147.09-21.45 149.44-20.63 151.79-19.8 153.79-18.5 155.79-17.2 157.14-15.23 158.49-13.25 158.49-10.15L158.49-10.15Q158.49-7.75 157.62-5.83 156.74-3.9 155.02-2.5 153.29-1.1 150.72-0.35 148.14 0.4 144.69 0.4L144.69 0.4Q142.49 0.4 140.72 0.1 138.94-0.2 137.52-0.68 136.09-1.15 135.02-1.7 133.94-2.25 133.19-2.7L133.19-2.7 135.59-7.45Q137.59-6.3 140.04-5.6 142.49-4.9 144.49-4.9L144.49-4.9Q145.49-4.9 146.97-5.15 148.44-5.4 149.79-6.03 151.14-6.65 152.12-7.7 153.09-8.75 153.09-10.35L153.09-10.35Q153.09-11.8 152.31-12.83 151.54-13.85 150.27-14.63 148.99-15.4 147.37-16.03 145.74-16.65 144.04-17.32 142.34-18 140.72-18.75 139.09-19.5 137.81-20.58 136.54-21.65 135.77-23.08 134.99-24.5 134.99-26.5L134.99-26.5Q134.99-28.35 135.74-30.15 136.49-31.95 137.99-33.35 139.49-34.75 141.72-35.6 143.94-36.45 146.89-36.45L146.89-36.45Q148.69-36.45 150.42-36.15 152.14-35.85 153.54-35.48 154.94-35.1 155.92-34.75 156.89-34.4 157.19-34.25ZM170.19-31.15L170.19-18.1 175.14-18.1Q177.14-18.1 178.49-18.8 179.84-19.5 180.61-20.5 181.39-21.5 181.71-22.65 182.04-23.8 182.04-24.7L182.04-24.7Q182.04-25.65 181.71-26.78 181.39-27.9 180.59-28.88 179.79-29.85 178.46-30.5 177.14-31.15 175.19-31.15L175.19-31.15 170.19-31.15ZM170.19 0L164.69 0 164.69-36.25 174.59-36.25Q177.44-36.25 179.81-35.5 182.19-34.75 183.91-33.27 185.64-31.8 186.59-29.68 187.54-27.55 187.54-24.8L187.54-24.8Q187.54-22.65 186.89-20.53 186.24-18.4 184.79-16.73 183.34-15.05 180.99-14 178.64-12.95 175.29-12.95L175.29-12.95 170.19-12.95 170.19 0ZM190.99-18.1L190.99-18.1Q190.99-21.85 192.44-25.23 193.89-28.6 196.41-31.15 198.94-33.7 202.28-35.18 205.64-36.65 209.49-36.65L209.49-36.65Q213.29-36.65 216.66-35.18 220.04-33.7 222.56-31.15 225.09-28.6 226.56-25.23 228.04-21.85 228.04-18.1L228.04-18.1Q228.04-14.25 226.56-10.9 225.09-7.55 222.56-5.03 220.04-2.5 216.66-1.05 213.29 0.4 209.49 0.4L209.49 0.4Q205.64 0.4 202.28-1.05 198.94-2.5 196.41-5.03 193.89-7.55 192.44-10.9 190.99-14.25 190.99-18.1ZM196.44-18.05L196.44-18.05Q196.44-15.3 197.46-12.88 198.49-10.45 200.28-8.65 202.09-6.85 204.49-5.8 206.89-4.75 209.59-4.75L209.59-4.75Q212.29-4.75 214.66-5.8 217.04-6.85 218.81-8.65 220.59-10.45 221.61-12.88 222.64-15.3 222.64-18.1L222.64-18.1Q222.64-20.85 221.61-23.28 220.59-25.7 218.79-27.5 216.99-29.3 214.61-30.35 212.24-31.4 209.54-31.4L209.54-31.4Q206.84-31.4 204.44-30.35 202.03-29.3 200.26-27.5 198.49-25.7 197.46-23.25 196.44-20.8 196.44-18.05ZM239.88 0L234.38 0 234.38-36.25 244.28-36.25Q247.13-36.25 249.51-35.5 251.88-34.75 253.61-33.27 255.33-31.8 256.28-29.68 257.23-27.55 257.23-24.8L257.23-24.8Q257.23-23.3 256.93-21.83 256.63-20.35 255.96-18.98 255.28-17.6 254.23-16.43 253.18-15.25 251.68-14.45L251.68-14.45Q253.68-11.3 256.03-7.48 258.38-3.65 260.78 0L260.78 0 254.23 0Q253.23-1.55 252.16-3.25 251.08-4.95 250.01-6.63 248.93-8.3 247.91-9.93 246.88-11.55 245.98-12.95L245.98-12.95 244.98-12.95 239.88-12.95 239.88 0ZM239.88-31.15L239.88-18.1 244.83-18.1Q246.83-18.1 248.18-18.78 249.53-19.45 250.31-20.45 251.08-21.45 251.41-22.6 251.73-23.75 251.73-24.7L251.73-24.7Q251.73-25.65 251.41-26.78 251.08-27.9 250.28-28.88 249.48-29.85 248.16-30.5 246.83-31.15 244.88-31.15L244.88-31.15 239.88-31.15ZM262.53-36.25L286.08-36.25 286.08-31.05 276.93-31.05 276.93 0 271.48 0 271.48-31.05 262.53-31.05 262.53-36.25ZM313.28-34.25L313.28-34.25 311.33-29.8Q309.28-30.55 307.25-31 305.23-31.45 303.38-31.45L303.38-31.45Q300.23-31.45 298.35-30.15 296.48-28.85 296.48-26.85L296.48-26.85Q296.48-25.15 297.83-24.13 299.18-23.1 301.18-22.28 303.18-21.45 305.53-20.63 307.88-19.8 309.88-18.5 311.88-17.2 313.23-15.23 314.58-13.25 314.58-10.15L314.58-10.15Q314.58-7.75 313.7-5.83 312.83-3.9 311.1-2.5 309.38-1.1 306.8-0.35 304.23 0.4 300.78 0.4L300.78 0.4Q298.58 0.4 296.8 0.1 295.03-0.2 293.6-0.68 292.18-1.15 291.1-1.7 290.03-2.25 289.28-2.7L289.28-2.7 291.68-7.45Q293.68-6.3 296.13-5.6 298.58-4.9 300.58-4.9L300.58-4.9Q301.58-4.9 303.05-5.15 304.53-5.4 305.88-6.03 307.23-6.65 308.2-7.7 309.18-8.75 309.18-10.35L309.18-10.35Q309.18-11.8 308.4-12.83 307.63-13.85 306.35-14.63 305.08-15.4 303.45-16.03 301.83-16.65 300.13-17.32 298.43-18 296.8-18.75 295.18-19.5 293.9-20.58 292.63-21.65 291.85-23.08 291.08-24.5 291.08-26.5L291.08-26.5Q291.08-28.35 291.83-30.15 292.58-31.95 294.08-33.35 295.58-34.75 297.8-35.6 300.03-36.45 302.98-36.45L302.98-36.45Q304.78-36.45 306.5-36.15 308.23-35.85 309.63-35.48 311.03-35.1 312-34.75 312.98-34.4 313.28-34.25ZM328.38-8.65L319.07-8.65 319.07-13.1 328.38-13.1 328.38-8.65ZM335.57 0L335.57-36.25 341.02-36.25 341.02 0 335.57 0ZM376.27-36.25L381.72-36.25 381.72 1.65Q381.02 0.75 379.02-1.25 377.02-3.25 374.42-5.85 371.82-8.45 368.9-11.3 365.97-14.15 363.37-16.73 360.77-19.3 358.82-21.33 356.87-23.35 356.22-24.2L356.22-24.2 355.27-25.5 355.42-23.9 355.42 0 349.92 0 349.92-37.95Q350.47-37.25 351.75-35.95 353.02-34.65 354.75-32.93 356.47-31.2 358.55-29.2 360.62-27.2 362.75-25.15 364.87-23.1 366.95-21.13 369.02-19.15 370.75-17.45 372.47-15.75 373.72-14.45 374.97-13.15 375.47-12.5L375.47-12.5 376.42-11.1 376.27-12.8 376.27-36.25ZM396.07 0L390.62 0 390.62-36.25 412.32-36.25 412.32-31.2 396.07-31.2 396.07-20.25 410.27-20.25 410.27-15.15 396.07-15.15 396.07 0ZM415.81-18.1L415.81-18.1Q415.81-21.85 417.27-25.23 418.72-28.6 421.24-31.15 423.77-33.7 427.12-35.18 430.47-36.65 434.31-36.65L434.31-36.65Q438.12-36.65 441.49-35.18 444.87-33.7 447.39-31.15 449.92-28.6 451.39-25.23 452.87-21.85 452.87-18.1L452.87-18.1Q452.87-14.25 451.39-10.9 449.92-7.55 447.39-5.03 444.87-2.5 441.49-1.05 438.12 0.4 434.31 0.4L434.31 0.4Q430.47 0.4 427.12-1.05 423.77-2.5 421.24-5.03 418.72-7.55 417.27-10.9 415.81-14.25 415.81-18.1ZM421.27-18.05L421.27-18.05Q421.27-15.3 422.29-12.88 423.31-10.45 425.12-8.65 426.92-6.85 429.31-5.8 431.72-4.75 434.42-4.75L434.42-4.75Q437.12-4.75 439.49-5.8 441.87-6.85 443.64-8.65 445.42-10.45 446.44-12.88 447.47-15.3 447.47-18.1L447.47-18.1Q447.47-20.85 446.44-23.28 445.42-25.7 443.62-27.5 441.81-29.3 439.44-30.35 437.06-31.4 434.37-31.4L434.37-31.4Q431.67-31.4 429.27-30.35 426.87-29.3 425.09-27.5 423.31-25.7 422.29-23.25 421.27-20.8 421.27-18.05Z" opacity="1" transform="matrix(1,0,0,1,0,0)" fill="#ffffff" class="undefined-text-0" data-fill-palette-color="primary" id="text-0"></path></svg></g></svg></g><g transform="matrix(1,0,0,1,300.3537203870226,42.93669121532934)"><svg viewBox="0 0 95.16627961297742 21.467025628742512" height="21.467025628742512" width="95.16627961297742"><g transform="matrix(1,0,0,1,0,0)"><svg width="95.16627961297742" viewBox="1.09375 -36.389129638671875 163.74624633789062 36.93912887573242" height="21.467025628742512" data-palette-color="#ffffff"><path d="M26.15-33.9Q26.15-33.65 26.08-32.6 26-31.55 26-30L26-30Q26-28.6 26.15-26.2L26.15-26.2Q26.15-24.85 24.4-24.85L24.4-24.85 15.6-24.85 15.5-19.7Q15.45-18.85 15.45-15.45L15.45-15.45Q15.45-11.95 15.5-8.65 15.55-5.35 15.55-2.95L15.55-2.95 15.6-0.9 15.6-0.65Q15.6-0.2 15.48-0.1 15.35 0 15.15 0 14.95 0 14.85 0L14.85 0 11.45 0Q10.85 0 10.75-0.2 10.65-0.4 10.65-0.93 10.65-1.45 10.65-1.7L10.65-1.7 10.85-7.9Q11.15-16 11.15-18.3L11.15-18.3Q11.15-19.6 11.05-22.2L11.05-22.2 11-24.85Q7.4-24.85 3.7-24.75L3.7-24.75 2.15-24.7Q1.5-24.7 1.25-25.05 1-25.4 1.15-25.85L1.15-25.85 1.2-27.1Q1.3-30 1.3-32.45L1.3-32.45Q1.3-33.65 1.25-33.9L1.25-33.9 1.25-34.25Q1.25-34.8 1.48-34.9 1.7-35 2.15-35L2.15-35 7.1-35 9.9-35.05Q12.5-35.15 13.55-35.15L13.55-35.15 16.55-35.1Q20.15-35 22.2-35L22.2-35Q23.7-35 24.15-35.05L24.15-35.05Q25.25-35.1 25.7-34.73 26.15-34.35 26.15-33.9L26.15-33.9ZM52.85-2.05Q54.2-0.7 54.2-0.2L54.2-0.2Q54.2-0.1 53.95 0.15L53.95 0.15Q53.5 0.45 51.7 0.45L51.7 0.45Q50.4 0.45 50.05 0.28 49.7 0.1 49.52-0.3 49.35-0.7 49.25-0.9L49.25-0.9Q49.1-1.2 48.02-2.63 46.95-4.05 46.4-4.8L46.4-4.8Q43.75-8.2 41.8-10.95L41.8-10.95Q40.6-12.65 37.35-16.8L37.35-16.8 36.55-17.8 33.1-22.1 32.9-20.1Q32.7-18.6 32.8-16.5L32.8-16.5Q32.95-15.1 33-9.25 33.05-3.4 33.05-0.7L33.05-0.7Q33.05 0.1 32.45 0.33 31.85 0.55 31.05 0.55L31.05 0.55Q30.7 0.55 30.6 0.25 30.5-0.05 30.47-0.4 30.45-0.75 30.45-0.85L30.45-0.85Q30.35-1.65 30.35-3.2L30.35-3.2Q30.35-4.2 30.4-4.7L30.4-4.7Q30.45-7.4 30.55-14.13 30.65-20.85 30.65-26.2L30.65-26.2Q30.65-31.95 30.5-32.9L30.5-32.9Q30.45-33.3 30.45-33.95L30.45-33.95Q30.45-34.7 30.67-34.9 30.9-35.1 31.35-35.1L31.35-35.1Q32.35-35.1 33.3-35.05L33.3-35.05 38.75-34.95Q41.75-34.95 45-33.9 48.25-32.85 48.25-30L48.25-30Q48.25-27.3 46.25-25.8 44.25-24.3 41.77-23.75 39.3-23.2 37.45-23.2L37.45-23.2Q36.8-23.2 36.75-23.25L36.75-23.25Q37.05-22.95 40.7-17.95L40.7-17.95Q51.7-3.2 52.85-2.05L52.85-2.05ZM32.95-25.25Q34.6-25.25 35.45-25.3L35.45-25.3Q38.35-25.4 39.95-25.7L39.95-25.7Q42.25-26.1 43.42-26.8 44.6-27.5 44.6-29L44.6-29Q44.6-30 43.55-30.73 42.5-31.45 41.02-31.83 39.55-32.2 38.45-32.2L38.45-32.2Q37.2-32.25 34.95-32.25L34.95-32.25 33.25-32.25 32.95-25.25ZM83.65-1Q83.9-0.5 83.9-0.35L83.9-0.35Q83.9 0.05 83 0.05L83 0.05 79.4 0.05Q79.2 0.05 79-0.3 78.8-0.65 78.65-1 78.5-1.35 78.4-1.6L78.4-1.6Q78.15-2.1 77.47-3.9 76.8-5.7 76.45-6.75L76.45-6.75Q76.3-7.25 75.84-8.22 75.4-9.2 75.2-9.6L75.2-9.6Q75-10.2 74.82-10.4 74.65-10.6 74.3-10.6L74.3-10.6Q73.95-10.6 73.42-10.55 72.9-10.5 72.3-10.45L72.3-10.45Q71.9-10.35 69.8-10.35L69.8-10.35Q68.34-10.35 66.95-10.25L66.95-10.25Q66.5-10.2 65.34-10.2L65.34-10.2 62.7-10.25Q62.45-10.25 62.32-10.05 62.2-9.85 62.15-9.58 62.1-9.3 62.05-9.15L62.05-9.15 61.75-7.9Q61.6-7.2 61.37-6.28 61.15-5.35 61-4.55L61-4.55 60.45-2.4 60.05-0.95Q59.9-0.35 59.77-0.18 59.65 0 59.4 0L59.4 0 56.45 0Q56.2 0 56.2-0.2L56.2-0.2Q56.2-0.3 56.4-0.9L56.4-0.9Q56.8-1.85 57.1-2.8L57.1-2.8Q58.95-9 59.3-10.9L59.3-10.9Q59.75-13.4 61.15-17.35L61.15-17.35Q61.6-19.05 62-20.45L62-20.45Q62.15-21.15 62.45-22.15L62.45-22.15Q63.4-25.65 64.34-28.7L64.34-28.7 65.59-32.7Q66-34.25 66.59-35.9L66.59-35.9Q66.9-36.65 67.3-36.25L67.3-36.25Q67.59-36.05 67.75-35.55 67.9-35.05 67.95-34.85L67.95-34.85Q68.09-34.25 70.59-28.85L70.59-28.85Q71.59-26.8 72.75-23.5L72.75-23.5Q73.25-22.05 75.5-17.25L75.5-17.25Q76.65-14.9 77-14L77-14Q77.8-12.25 81.3-5.5L81.3-5.5 81.9-4.25Q83.05-1.7 83.65-1L83.65-1ZM70.55-17.5Q70.9-17.55 71.15-17.55 71.4-17.55 71.55-17.6 71.7-17.65 71.7-17.75L71.7-17.75Q71.7-17.85 71.55-18.15L71.55-18.15Q71.3-18.6 70.4-20.68 69.5-22.75 69.15-23.8L69.15-23.8Q68.65-25 68.37-25.8 68.09-26.6 67.95-26.9L67.95-26.9Q67.84-27.15 67.72-27.4 67.59-27.65 67.5-27.8 67.4-27.95 67.3-27.95L67.3-27.95Q67.15-27.95 66.97-27.2 66.8-26.45 66.7-26.05L66.7-26.05Q65.8-23.15 65.4-21.65L65.4-21.65Q65.2-20.9 64.82-19.83 64.45-18.75 64.3-18.35L64.3-18.35Q64.15-17.85 64.15-17.55L64.15-17.55Q64.15-17.25 64.59-17.25L64.59-17.25Q65.65-17.25 67.82-17.32 70-17.4 70.55-17.5L70.55-17.5ZM97.09-6.55Q97.44-7.6 98.17-9.58 98.89-11.55 99.34-12.55L99.34-12.55Q99.84-13.45 100.94-16.73 102.04-20 102.74-22.2L102.74-22.2 104.84-27.4Q105.89-29.85 106.09-30.45L106.09-30.45Q106.54-31.5 107.04-33.2L107.04-33.2 107.54-34.6Q107.64-35 107.82-35.1 107.99-35.2 108.34-35.05L108.34-35.05Q108.64-34.95 109.07-34.95 109.49-34.95 109.59-34.95L109.59-34.95Q109.89-34.95 109.89-34.8L109.89-34.8Q109.89-34.7 109.69-34.3L109.69-34.3Q108.69-31.65 107.99-30.45L107.99-30.45Q107.49-29.55 105.59-24.08 103.69-18.6 103.14-16.85L103.14-16.85Q103.09-16.75 100.84-10.45L100.84-10.45Q99.49-6.65 99.19-5.85L99.19-5.85Q98.64-4.5 98.02-2.73 97.39-0.95 97.29-0.75L97.29-0.75Q97.19-0.35 97.07-0.25 96.94-0.15 96.64-0.15L96.64-0.15Q96.39-0.15 96.29-0.23 96.19-0.3 96.17-0.4 96.14-0.5 96.09-0.55L96.09-0.55 95.29-3.05Q93.89-7.6 93.54-8.55L93.54-8.55 90.14-18.15Q90.19-18.05 88.84-22.3L88.84-22.3Q87.99-25.3 87.24-27.5L87.24-27.5Q86.99-28.05 86.14-31.35L86.14-31.35 85.49-33.9Q85.29-34.45 85.29-34.8L85.29-34.8Q85.29-35 85.39-35.05 85.49-35.1 85.59-35.13 85.69-35.15 85.74-35.15L85.74-35.15 87.49-35.15 87.64-35.15Q88.09-35.15 88.24-35 88.39-34.85 88.44-34.63 88.49-34.4 88.54-34.3L88.54-34.3Q88.84-33.6 89.49-30.7L89.49-30.7Q89.94-28.85 91.34-24.55L91.34-24.55Q91.59-23.75 92.32-21.5 93.04-19.25 93.29-18.2L93.29-18.2Q93.94-15.55 95.09-12.1L95.09-12.1 95.64-10.55Q96.24-8.65 96.69-7.45L96.69-7.45Q97.04-6.65 97.09-6.55L97.09-6.55ZM134.49-33.25L134.49-32.7Q134.49-31.55 134.29-31.55L134.29-31.55Q133.99-31.55 133.62-31.63 133.24-31.7 132.69-31.7L132.69-31.7 124.69-31.7 118.49-31.75Q118.19-31.75 116.24-31.6L116.24-31.6 115.09-31.5 114.99-30.15Q114.94-29.4 114.94-27.8L114.94-27.8Q114.94-27 115.04-25.7L115.04-25.7Q115.14-24.5 115.14-23.95L115.14-23.95 115.14-21.95Q115.14-21.15 115.19-20.7L115.19-20.7Q115.64-20.65 116.54-20.65L116.54-20.65 118.54-20.65Q118.84-20.65 119.74-20.75L119.74-20.75Q121.04-20.85 121.99-20.85L121.99-20.85Q122.39-20.85 124.79-20.7L124.79-20.7 125.89-20.65Q126.29-20.65 127.04-20.73 127.79-20.8 128.49-20.8L128.49-20.8 130.14-20.75Q131.44-20.65 131.94-20.65L131.94-20.65Q132.49-20.65 132.69-20.7L132.69-20.7 132.99-20.75Q133.34-20.75 133.49-20.53 133.64-20.3 133.59-20.1L133.59-20.1Q133.54-19.75 133.54-19.23 133.54-18.7 133.49-18.3L133.49-18.3Q133.44-17.9 133.34-17.82 133.24-17.75 132.74-17.75L132.74-17.75 130.74-17.95Q126.99-18.3 125.84-18.3L125.84-18.3Q121.59-18.3 119.59-18.15L119.59-18.15Q118.79-18.05 117.84-18.05 116.89-18.05 116.64-18.05L116.64-18.05Q115.69-18.05 115.24-18.1L115.24-18.1 115.09-17.3Q114.99-16.4 114.99-15.7L114.99-15.7Q114.99-15.1 115.09-14.3L115.09-14.3Q115.19-13.5 115.19-12.9L115.19-12.9 115.24-6.95 115.19-4.45Q115.14-4 115.14-3.2L115.14-3.2Q115.79-3.15 117.04-3.15L117.04-3.15Q118.09-3.1 120.29-3.1L120.29-3.1 122.99-3.05Q123.84-3 125.59-3L125.59-3Q126.64-3 128.34-3.1L128.34-3.1 130.44-3.15Q131.64-3.15 132.44-3.1 133.24-3.05 133.64-3.05L133.64-3.05Q134.04-3.05 134.12-2.9 134.19-2.75 134.19-2.25L134.19-2.25Q134.19-1.9 134.14-1.53 134.09-1.15 134.09-0.7L134.09-0.7Q134.09-0.35 133.84-0.23 133.59-0.1 133.04-0.1L133.04-0.1Q132.49-0.1 132.14-0.15L132.14-0.15Q130.79-0.3 126.69-0.3L126.69-0.3Q124.19-0.3 123.09-0.25L123.09-0.25Q122.24-0.2 120.29-0.2L120.29-0.2 115.64-0.25Q114.84-0.3 113.74-0.3L113.74-0.3Q113.04-0.3 112.81-0.48 112.59-0.65 112.59-1.05L112.59-1.05 112.64-1.85Q112.69-2.05 112.69-2.3L112.69-2.3Q112.69-2.45 112.64-3.03 112.59-3.6 112.59-5.15L112.59-5.15Q112.59-6.65 112.49-10.05L112.49-10.05Q112.34-12.85 112.34-15.45L112.34-15.45Q112.34-16.55 112.59-21.8L112.59-21.8Q112.64-22.85 112.69-23.9 112.74-24.95 112.74-25.8L112.74-25.8Q112.74-31.6 112.59-33.45L112.59-33.45Q112.44-34.65 114.04-34.65L114.04-34.65Q114.44-34.65 115.34-34.55L115.34-34.55Q116.14-34.45 116.54-34.45L116.54-34.45 119.69-34.55Q123.09-34.75 124.94-34.75L124.94-34.75Q127.09-34.75 130.99-34.65L130.99-34.65Q132.24-34.6 133.64-34.6L133.64-34.6Q134.24-34.6 134.39-34.3 134.54-34 134.51-33.68 134.49-33.35 134.49-33.25L134.49-33.25ZM143.44-34.6L143.34-31.7Q143.09-24.7 143.09-24.1L143.09-24.1 143.04-16.95Q143.04-16 143.09-15.3L143.09-15.3 143.14-12.3Q143.14-11.25 143.09-11L143.09-11Q143.04-10.7 143.06-10.45 143.09-10.2 143.09-10.1L143.09-10.1Q143.09-9.9 143.14-9.85L143.14-9.85 144.34-9.75Q145.94-9.65 146.99-9.7L146.99-9.7 156.24-9.8Q156.24-9.8 161.49-9.65L161.49-9.65 163.84-9.6Q164.39-9.55 164.39-9.3L164.39-9.3Q164.39-9.2 164.34-9.05 164.29-8.9 164.29-8.75L164.29-8.75 164.29-6.45Q164.29-5.55 164.59-2.65L164.59-2.65 164.79-0.55 164.84-0.3Q164.84-0.05 164.59 0.03 164.34 0.1 163.69 0.1L163.69 0.1 160.04 0.05 153.84-0.05Q152.59-0.05 150.34 0.1L150.34 0.1Q149.34 0.15 148.11 0.2 146.89 0.25 145.69 0.25L145.69 0.25 144.84 0.2Q144.54 0.15 143.69 0.15L143.69 0.15 141.44 0.2Q140.84 0.25 139.89 0.25L139.89 0.25Q139.24 0.25 139.11 0.08 138.99-0.1 139.01-0.45 139.04-0.8 139.04-1.05L139.04-1.05Q139.04-2.15 139.19-4.85L139.19-4.85 139.34-10 139.24-12.35Q139.19-13.05 139.14-14.03 139.09-15 139.09-16.05L139.09-16.05Q139.09-14.35 139.39-19.48 139.69-24.6 139.69-25.8L139.69-25.8 139.64-31.45 139.54-34.65 139.54-34.7Q139.54-35.1 140.09-35.1L140.09-35.1 140.79-35.05Q141.04-35.05 141.44-35.02 141.84-35 142.69-35L142.69-35 143.14-35Q143.44-35 143.44-34.6L143.44-34.6Z" opacity="1" transform="matrix(1,0,0,1,0,0)" fill="#ffffff" class="undefined-text-1" data-fill-palette-color="secondary" id="text-1"></path></svg></g></svg></g></svg></g></svg></g><g transform="matrix(1,0,0,1,403.7204037901796,0)"><svg viewBox="0 0 78.80204470527018 89.00593667850731" height="89.00593667850731" width="78.80204470527018"><g><svg xmlns="http://www.w3.org/2000/svg" data-name="Glyph Icon" viewBox="7.210000038146973 4 49.58000183105469 56" x="0" y="0" height="89.00593667850731" width="78.80204470527018" class="icon-icon-0" data-fill-palette-color="accent" id="icon-0"><path d="M49.13 20.84l-16-9.26V4L55.7 17.05ZM32 50.52L16 41.26V22.74l16-9.26 16 9.26V41.26ZM30.91 11.58l-16 9.26L8.3 17.05 30.91 4ZM13.77 22.74V41.26L7.21 45.05V19Zm1.1 20.42l16 9.26V60L8.3 47Zm18.22 9.26l16-9.26L55.7 47 33.09 60ZM50.23 41.26V22.74L56.79 19v26.1Z" fill="#b2fcfb" data-fill-palette-color="accent"></path></svg></g></svg></g></svg></g><defs></defs></svg><rect width="395.5199999999999" height="72.95749282722787" fill="none" stroke="none" visibility="hidden"></rect></g></svg></g></svg>